<?xml version="1.0" standalone="no"?>
<!DOCTYPE svg PUBLIC "-//W3C//DTD SVG 20010904//EN"
 "http://www.w3.org/TR/2001/REC-SVG-20010904/DTD/svg10.dtd">
<svg version="1.0" xmlns="http://www.w3.org/2000/svg"
 width="1000.000000pt" height="1000.000000pt" viewBox="0 0 1000.000000 1000.000000"
 preserveAspectRatio="xMidYMid meet">
<metadata>
Created by potrace 1.14, written by Peter Selinger 2001-2017
</metadata>
<g transform="translate(0.000000,1000.000000) scale(0.100000,-0.100000)"
fill="#000000" stroke="none">
<path d="M6013 5180 l0 -790 123 0 c68 0 124 3 125 8 0 4 1 359 2 790 l2 782
-126 0 -127 0 1 -790z"/>
<path d="M770 5135 l0 -745 470 0 470 0 0 105 0 105 -340 0 -340 0 0 640 0
640 -130 0 -130 0 0 -745z"/>
<path d="M3560 5135 l0 -746 328 1 c251 1 342 5 392 16 237 54 357 209 345
442 -8 136 -87 255 -201 298 l-46 18 33 17 c106 55 169 152 177 274 14 218
-103 361 -333 408 -51 11 -153 15 -382 16 l-313 1 0 -745z m612 524 c106 -22
158 -85 158 -192 0 -94 -31 -146 -110 -188 -41 -21 -60 -23 -221 -27 l-177 -4
0 211 0 211 149 0 c81 0 172 -5 201 -11z m61 -617 c94 -30 147 -130 131 -248
-11 -81 -43 -127 -117 -166 -38 -21 -59 -23 -234 -26 l-191 -4 0 224 c0 122 2
227 5 231 2 4 84 7 181 6 129 -1 190 -5 225 -17z"/>
<path d="M2215 5515 c-5 -2 -37 -11 -70 -21 -145 -43 -251 -147 -274 -269 l-8
-45 124 0 c109 0 124 2 129 18 26 85 83 125 186 129 126 4 199 -63 200 -187 1
-33 -1 -62 -3 -65 -3 -2 -63 -5 -134 -6 -209 -3 -343 -42 -429 -126 -88 -86
-118 -241 -70 -360 27 -65 87 -131 153 -166 142 -76 340 -57 454 43 20 17 37
30 38 29 0 -2 2 -14 4 -25 3 -12 9 -33 14 -48 l11 -26 131 0 c121 0 131 1 124
18 -33 77 -37 122 -40 460 -3 275 -7 353 -19 396 -29 99 -113 184 -223 227
-46 18 -82 23 -173 24 -63 2 -119 1 -125 0z m286 -622 c0 -10 1 -55 2 -101 2
-79 0 -86 -27 -119 -16 -20 -56 -48 -89 -64 -50 -23 -71 -28 -126 -26 -79 3
-120 25 -149 76 -28 50 -23 120 12 166 47 61 117 82 279 84 86 1 97 -1 98 -16z"/>
<path d="M5173 5505 c-163 -38 -288 -150 -312 -280 l-8 -45 128 0 c124 0 129
1 129 21 0 37 33 79 83 104 40 19 62 24 116 22 120 -5 179 -65 183 -188 1 -34
-2 -64 -7 -65 -6 -1 -73 -5 -150 -7 -77 -3 -151 -8 -165 -11 -14 -3 -38 -9
-55 -12 -96 -20 -208 -102 -248 -180 -61 -121 -39 -284 51 -377 81 -85 173
-118 307 -113 103 4 186 34 242 88 l31 30 14 -48 14 -49 133 -3 c125 -2 133
-1 126 15 -34 79 -38 122 -40 458 -3 410 -8 434 -98 532 -74 81 -188 121 -339
121 -46 0 -107 -6 -135 -13z m318 -627 c1 -18 1 -66 1 -107 0 -68 -2 -75 -32
-106 -54 -56 -114 -80 -202 -80 -85 0 -114 14 -155 74 -27 40 -25 120 4 159
49 66 117 88 276 91 l107 2 1 -33z"/>
<path d="M6860 5500 c-155 -47 -263 -151 -323 -311 -62 -165 -55 -392 16 -541
105 -218 362 -325 621 -258 90 23 150 55 214 113 73 68 73 71 3 138 -34 32
-65 59 -68 59 -4 0 -23 -15 -43 -34 -19 -19 -60 -47 -90 -62 -47 -24 -67 -28
-140 -29 -98 0 -157 21 -210 76 -39 40 -80 125 -87 180 l-6 39 362 0 361 0 0
103 c-1 298 -124 486 -351 533 -88 18 -187 16 -259 -6z m212 -200 c48 -14 94
-52 118 -99 19 -39 41 -137 32 -146 -3 -3 -111 -5 -239 -5 -219 0 -234 1 -229
18 3 9 8 31 12 47 13 56 52 119 97 154 46 37 138 50 209 31z"/>
<path d="M8060 5500 c-39 -13 -68 -33 -102 -68 l-47 -50 -3 57 -3 56 -117 3
c-65 1 -118 -1 -119 -5 -1 -11 -1 -1075 0 -1090 1 -10 33 -13 124 -13 l124 0
1 378 c0 207 1 382 1 388 1 6 19 29 40 52 51 54 125 77 223 69 l68 -5 0 118
c0 114 -1 118 -22 124 -43 11 -113 5 -168 -14z"/>
<path d="M8676 5504 c-79 -19 -164 -66 -220 -121 -51 -52 -73 -91 -85 -157
l-8 -46 129 0 c71 0 127 4 124 8 -12 20 36 89 77 113 57 33 174 34 227 3 50
-29 79 -88 82 -162 1 -34 0 -63 -2 -66 -3 -2 -66 -6 -140 -7 -74 -1 -164 -9
-200 -17 -177 -40 -281 -132 -309 -272 -38 -195 76 -361 277 -400 126 -25 261
6 345 80 20 17 37 30 38 29 0 -2 2 -14 4 -25 3 -12 9 -33 14 -48 l11 -26 131
0 c121 0 131 1 124 18 -34 78 -38 122 -40 447 -2 182 -6 348 -9 370 -21 135
-139 249 -289 281 -78 16 -207 15 -281 -2z m325 -606 c1 -16 1 -156 0 -182 -2
-34 -82 -100 -145 -120 -66 -21 -150 -16 -196 11 -41 24 -68 79 -66 133 4 78
39 117 130 148 72 24 275 32 277 10z"/>
<path d="M9176 4294 c-21 -21 -20 -73 2 -90 43 -33 107 2 97 54 -8 48 -66 69
-99 36z"/>
<path d="M5592 3765 l-1 -525 329 0 330 0 0 40 0 40 -283 0 -283 0 -1 210 0
210 246 0 246 0 0 40 0 40 -246 0 -246 0 0 195 0 195 281 2 281 3 0 35 -1 35
-326 3 -325 2 -1 -525z"/>
<path d="M8730 4120 l0 -100 -72 0 -73 0 0 -37 1 -38 72 -3 72 -3 1 -282 c0
-187 5 -294 12 -318 25 -76 76 -109 168 -109 69 0 79 6 79 50 l0 37 -50 -5
c-58 -5 -95 13 -111 56 -8 21 -15 403 -10 550 1 21 5 22 81 22 l80 0 0 40 0
40 -80 0 -80 0 -1 28 c-1 15 -1 60 -1 100 l0 72 -44 0 -44 0 0 -100z"/>
<path d="M7315 4031 c-120 -30 -222 -148 -252 -291 -14 -69 -8 -199 12 -261
62 -189 240 -286 431 -235 56 15 134 63 159 99 15 21 14 23 -11 45 l-26 23
-23 -25 c-63 -68 -206 -95 -295 -55 -91 41 -153 128 -165 232 l-7 57 282 0
283 0 -6 83 c-14 209 -133 340 -306 336 -25 -1 -59 -4 -76 -8z m170 -94 c76
-42 124 -122 125 -204 l0 -33 -234 0 -234 0 9 41 c31 137 128 221 248 215 31
-2 70 -10 86 -19z"/>
<path d="M8093 4013 c-54 -26 -78 -45 -111 -87 l-22 -29 -1 34 c-1 19 -2 46
-2 62 -1 25 -4 27 -43 27 l-42 0 0 -390 -1 -390 45 0 44 0 0 270 c0 251 1 274
20 310 45 89 113 133 210 136 85 2 131 -22 162 -85 22 -44 22 -58 23 -336 l1
-290 44 0 44 0 0 291 c-1 333 -8 375 -72 439 -67 67 -204 84 -299 38z"/>
<path d="M6320 4016 c0 -2 25 -71 56 -153 31 -81 61 -164 68 -183 25 -67 134
-355 151 -398 17 -40 20 -43 53 -40 l35 3 49 130 c26 72 61 164 77 205 48 123
161 430 161 435 0 3 -20 5 -44 5 -41 0 -45 -2 -55 -32 -67 -192 -216 -605
-221 -611 -4 -4 -35 70 -69 165 -35 95 -88 242 -118 326 l-56 152 -44 0 c-23
0 -43 -2 -43 -4z"/>
<path d="M9171 3630 l1 -390 44 0 44 0 0 390 0 390 -44 0 -45 0 0 -390z"/>
</g>
</svg>
