<?xml version="1.0" standalone="no"?>
<!DOCTYPE svg PUBLIC "-//W3C//DTD SVG 20010904//EN"
 "http://www.w3.org/TR/2001/REC-SVG-20010904/DTD/svg10.dtd">
<svg version="1.0" xmlns="http://www.w3.org/2000/svg"
 width="500.000000pt" height="500.000000pt" viewBox="0 0 500.000000 500.000000"
 preserveAspectRatio="xMidYMid meet">
<metadata>
Created by potrace 1.14, written by Peter Selinger 2001-2017
</metadata>
<g transform="translate(0.000000,500.000000) scale(0.100000,-0.100000)"
fill="#000000" stroke="none">
<path d="M2504 4297 c-21 -18 -57 -51 -81 -74 -23 -24 -47 -43 -53 -43 -6 0
-8 -4 -5 -10 3 -5 2 -10 -4 -10 -5 0 -16 -6 -23 -13 -48 -47 -404 -322 -455
-352 -18 -11 -33 -23 -33 -26 0 -4 -9 -11 -20 -14 -11 -3 -26 -12 -32 -18 -62
-58 -380 -236 -513 -287 -33 -13 -79 -31 -102 -42 -24 -10 -47 -18 -53 -18 -6
0 -18 -4 -28 -10 -9 -5 -55 -25 -102 -43 -47 -19 -94 -38 -105 -42 -11 -4 -24
-9 -30 -11 -10 -2 -182 -69 -312 -120 -39 -16 -73 -35 -76 -44 -6 -26 1 -284
8 -307 4 -13 11 -21 15 -18 4 3 10 -3 12 -13 3 -9 4 -431 4 -938 l-1 -921 28
-1 c20 0 26 3 19 11 -11 14 -11 1826 0 1843 5 8 48 11 135 9 71 -2 279 -6 463
-10 184 -3 432 -8 550 -11 118 -3 229 -5 245 -4 17 1 37 2 45 1 8 0 58 -1 112
-2 81 -1 97 -4 100 -17 7 -32 1 -1497 -6 -1512 -5 -13 0 -16 21 -14 43 2 45 3
36 17 -9 15 -11 1494 -1 1510 4 7 45 10 120 8 62 -2 213 -4 335 -5 190 -1 223
-3 224 -16 6 -82 3 -2029 -3 -2042 -7 -15 -4 -18 19 -18 l28 0 0 1031 c0 570
4 1033 9 1036 4 3 52 7 105 9 53 2 139 6 191 9 52 2 136 7 185 9 152 8 293 15
450 21 83 3 186 8 230 10 312 17 305 17 306 -2 0 -10 1 -419 1 -909 l0 -890
29 4 c21 3 27 8 20 16 -14 17 -14 1785 0 1802 15 18 18 298 4 316 -5 7 -41 24
-80 38 -38 13 -81 30 -95 37 -14 7 -31 13 -38 13 -7 0 -37 9 -65 21 -29 12
-68 27 -87 34 -147 57 -482 213 -492 229 -4 6 -8 7 -8 3 0 -4 -26 7 -57 24
-227 125 -316 178 -321 191 -2 5 -8 8 -14 8 -9 0 -153 108 -190 142 -7 7 -43
37 -78 67 -36 30 -74 63 -85 73 -11 10 -38 33 -59 51 -22 17 -58 49 -80 70
-22 22 -48 44 -57 50 -16 12 -131 111 -154 134 -10 10 -21 5 -51 -20z"/>
</g>
</svg>
